<svg width="222" height="23" viewBox="0 0 222 23" fill="none" xmlns="http://www.w3.org/2000/svg">
<g clip-path="url(#clip0_202_38)">
<path d="M5.64951 17.5905H17.0769L16.1781 22.4696H3.46674C2.95315 22.4696 2.56796 22.3412 2.18276 22.2128C1.66917 22.0844 1.28398 21.8276 1.02718 21.4425C0.770388 21.1857 0.513592 20.8005 0.256796 20.2869C0.128398 19.9017 0 19.3881 0 19.0029V3.46674C0 2.95315 0.128398 2.56796 0.256796 2.18276C0.385194 1.66917 0.64199 1.28398 1.02718 1.02718C1.28398 0.64199 1.66917 0.385194 2.05437 0.256796C2.56796 0.128398 2.95315 0 3.46674 0H17.0769L16.1781 4.87912H5.64951V17.5905Z" fill="#C93135"/>
<path d="M35.5662 2.69629V22.598H22.8548C22.3412 22.598 21.956 22.4696 21.5708 22.3412C21.1857 22.2128 20.8005 21.956 20.5437 21.5708C20.2869 21.314 20.0301 20.9288 19.7733 20.5436C19.6449 20.1584 19.5165 19.6448 19.5165 19.2596V2.69629H25.0376V17.7188H30.0451V2.69629H35.5662Z" fill="#C93135"/>
<path d="M45.0676 16.3065H44.1688V22.4696H38.6477V7.57541H37.2354L38.1341 2.69629H51.3591C51.8727 2.69629 52.2579 2.82469 52.6431 2.95308C53.0283 3.08148 53.4135 3.33828 53.7987 3.72347C54.0555 3.98027 54.3123 4.36546 54.5691 4.87905C54.6975 5.26425 54.8259 5.77784 54.8259 6.16303V12.8397C54.8259 13.3533 54.6975 13.7385 54.5691 14.1237C54.4407 14.5089 54.1839 14.8941 53.7987 15.2793C53.5419 15.5361 53.1567 15.7929 52.6431 16.0497C52.2579 16.1781 51.7443 16.3065 51.3591 16.3065H51.1023L54.8259 22.4696H48.7912L45.0676 16.3065ZM49.3048 11.4273V7.57541H44.2972V11.4273H49.3048Z" fill="#C93135"/>
<path d="M62.915 22.4696H57.3939V2.69629H62.915V22.4696Z" fill="#C93135"/>
<path d="M78.3227 2.69629C78.8363 2.69629 79.2215 2.82469 79.6067 2.95308C79.9919 3.08148 80.3771 3.33828 80.6339 3.72347C80.8907 3.98027 81.1475 4.36546 81.4043 4.75066C81.5327 5.13585 81.6611 5.64944 81.6611 6.03463V19.0028C81.6611 19.5164 81.5327 19.9016 81.4043 20.2868C81.2759 20.672 81.0191 21.0572 80.6339 21.4424C80.3771 21.6992 79.9919 21.956 79.6067 22.2128C79.2215 22.3412 78.7079 22.4696 78.3227 22.4696H68.9497C68.4361 22.4696 68.0509 22.3412 67.6657 22.2128C67.2805 22.0844 66.8953 21.8276 66.6385 21.4424C66.3817 21.1856 66.1249 20.8004 65.8681 20.2868C65.7397 19.9016 65.6113 19.388 65.6113 19.0028V6.03463C65.6113 5.52104 65.7397 5.13585 65.8681 4.75066C65.9965 4.36546 66.2533 3.98027 66.6385 3.72347C66.8953 3.46668 67.2805 3.20988 67.6657 2.95308C68.0509 2.82469 68.5645 2.69629 68.9497 2.69629H78.3227ZM76.14 7.57541H71.1324V17.7188H76.14V7.57541Z" fill="#C93135"/>
<path d="M100.664 2.69629V22.598H87.9526C87.439 22.598 87.0538 22.4696 86.6686 22.3412C86.2834 22.2128 85.8982 21.956 85.6414 21.5708C85.3846 21.314 85.1278 20.9288 84.871 20.5436C84.7427 20.1584 84.6143 19.6448 84.6143 19.2596V2.69629H90.1354V17.7188H95.1429V2.69629H100.664Z" fill="#C93135"/>
<path d="M103.489 6.16303C103.489 5.64944 103.617 5.26425 103.746 4.87905C103.874 4.49386 104.131 4.10867 104.516 3.72347C104.773 3.46668 105.158 3.20988 105.543 2.95308C105.928 2.82469 106.442 2.69629 106.827 2.69629H118.64L117.741 7.57541H109.01V9.75817L116.2 10.657C116.585 10.657 116.971 10.7854 117.356 10.9138C117.741 11.0422 118.126 11.2989 118.383 11.5557C118.64 11.8125 118.897 12.1977 119.153 12.5829C119.41 12.9681 119.41 13.3533 119.41 13.8669V19.1312C119.41 19.6448 119.282 20.03 119.153 20.4152C119.025 20.8004 118.768 21.1856 118.383 21.4424C118.126 21.6992 117.741 21.956 117.356 22.2128C116.971 22.3412 116.457 22.4696 116.072 22.4696H104.002L104.901 17.7188H114.017V15.4077L106.699 14.5089C106.57 14.5089 106.442 14.5089 106.057 14.3805C105.672 14.2521 105.286 14.1237 104.901 13.9953C104.516 13.7385 104.131 13.4817 103.874 12.9681C103.617 12.5829 103.36 11.9409 103.36 11.1706V6.16303H103.489Z" fill="#C93135"/>
<path d="M167.046 22.4696H161.525V2.69629H167.046V22.4696Z" fill="white"/>
<path d="M186.177 22.4695H179.629L175.648 15.0225H175.135V22.4695H169.614V2.56787H175.135V10.0149H175.648L179.5 2.56787H186.049L180.271 12.4545L186.177 22.4695Z" fill="white"/>
<path d="M193.496 17.5904H203.254L202.355 22.4696H187.975V2.69629H203.254L202.355 7.57541H193.496V10.1434H201.713L201.071 15.0225H193.496V17.5904Z" fill="white"/>
<path d="M212.242 16.3065H211.343V22.4696H205.822V7.57541H204.409L205.308 2.69629H218.533C219.047 2.69629 219.432 2.82469 219.817 2.95308C220.202 3.08148 220.588 3.33828 220.973 3.72347C221.23 3.98027 221.486 4.36546 221.743 4.87905C221.872 5.26425 222 5.77784 222 6.16303V12.8397C222 13.3533 221.872 13.7385 221.743 14.1237C221.615 14.5089 221.358 14.8941 220.973 15.2793C220.716 15.5361 220.331 15.7929 219.817 16.0497C219.432 16.1781 218.918 16.3065 218.533 16.3065H218.276L222 22.4696H215.965L212.242 16.3065ZM216.35 11.4273V7.57541H211.343V11.4273H216.35Z" fill="white"/>
<path d="M133.919 21.4424C133.534 21.4424 133.277 21.4424 132.892 21.4424C132.507 21.4424 132.25 21.4424 131.865 21.4424C131.479 21.4424 131.223 21.6992 131.223 22.0844C131.223 22.4696 131.479 22.7264 131.865 22.7264C132.507 22.7264 133.149 22.7264 133.919 22.7264C134.304 22.7264 134.561 22.4696 134.561 22.0844C134.689 21.6992 134.304 21.4424 133.919 21.4424Z" fill="white"/>
<path d="M131.608 5.64946C132.378 5.64946 133.277 5.64946 134.047 5.64946C134.433 5.64946 134.818 5.39266 134.818 5.00747C134.818 4.62227 134.561 4.36548 134.047 4.36548C133.662 4.36548 133.277 4.36548 132.892 4.36548C132.507 4.36548 131.993 4.36548 131.608 4.36548C131.223 4.36548 130.966 4.62227 130.838 5.00747C130.838 5.39266 131.094 5.64946 131.608 5.64946Z" fill="white"/>
<path d="M131.736 1.4124C132.121 1.4124 132.507 1.4124 132.892 1.4124C133.277 1.4124 133.662 1.4124 134.047 1.4124C134.433 1.4124 134.689 1.1556 134.689 0.770407C134.689 0.385214 134.433 0.128418 134.047 0.128418C133.277 0.128418 132.378 0.128418 131.608 0.128418C131.223 0.128418 130.966 0.385214 130.966 0.770407C130.966 1.1556 131.223 1.4124 131.736 1.4124Z" fill="white"/>
<path d="M136.872 6.41992C135.203 6.41992 133.405 6.41992 131.736 6.41992C131.223 6.41992 130.966 6.67672 130.966 7.06191C130.966 7.44711 131.223 7.7039 131.736 7.7039C132.507 7.7039 133.277 7.7039 133.919 7.7039C134.047 7.7039 134.304 7.7039 134.433 7.7039C134.561 7.7039 134.689 7.7039 134.689 7.7039C134.689 7.7039 135.331 7.19031 136.872 6.41992Z" fill="white"/>
<path d="M137.001 20.5437C137.514 20.5437 137.771 20.2869 137.771 19.9018C137.771 19.5166 137.514 19.2598 137.001 19.2598C136.487 19.2598 135.973 19.2598 135.331 19.2598C134.818 19.2598 134.176 19.2598 133.662 19.2598C133.149 19.2598 132.892 19.5166 132.892 19.9018C132.892 20.2869 133.149 20.5437 133.662 20.5437C134.818 20.5437 135.845 20.5437 137.001 20.5437Z" fill="white"/>
<path d="M148.942 15.5361H149.455L149.07 13.7385L148.685 15.2793L148.942 15.5361Z" fill="white"/>
<path d="M151.638 15.0226C151.638 14.7659 151.638 14.6375 151.766 14.5091C151.253 13.7387 150.482 13.2251 149.584 13.0967C149.455 13.2251 149.327 13.4819 149.07 13.4819L149.584 15.6646L151.638 15.0226Z" fill="white"/>
<path d="M148.171 16.4349V16.1781L147.786 15.6645L146.63 15.2793L148.171 16.4349Z" fill="white"/>
<path d="M150.097 16.6917L150.868 18.4893C150.868 18.4893 150.996 18.4893 151.124 18.4893C151.253 18.4893 151.381 18.4893 151.381 18.6177C151.895 17.9757 152.28 17.2053 152.28 16.4349C152.28 16.1781 152.28 15.9213 152.152 15.7929C152.023 15.7929 151.766 15.6645 151.638 15.5361L150.097 16.6917Z" fill="white"/>
<path d="M151.509 15.2793L149.712 15.7929L149.969 16.4349L151.509 15.2793Z" fill="white"/>
<path d="M160.112 15.0226C159.47 11.8126 156.902 9.75828 153.564 9.75828C153.436 9.75828 153.179 9.75828 153.05 9.75828C153.05 9.75828 153.05 9.75828 153.05 9.62988C153.179 9.62988 153.179 9.50149 153.307 9.50149C154.848 8.4743 155.618 7.19032 155.747 5.39275C155.875 2.6964 153.692 0.256836 150.996 0.256836C146.117 0.256836 141.109 0.256836 136.23 0.256836C135.717 0.256836 135.46 0.513632 135.46 0.898826C135.46 1.28402 135.717 1.54082 136.23 1.54082C137.129 1.54082 138.028 1.54082 138.798 1.54082C138.927 1.54082 139.055 1.54082 139.055 1.54082C139.312 1.54082 139.44 1.66921 139.44 1.92601C139.44 2.1828 139.312 2.3112 139.055 2.3112C138.927 2.3112 138.798 2.3112 138.798 2.3112C137.386 2.3112 135.973 2.3112 134.561 2.3112C134.433 2.3112 134.433 2.3112 134.304 2.3112C133.919 2.3112 133.662 2.568 133.662 2.95319C133.662 3.20999 133.919 3.59518 134.304 3.59518C134.433 3.59518 134.561 3.59518 134.689 3.59518C136.744 3.59518 138.67 3.59518 140.724 3.59518C140.853 3.59518 140.981 3.59518 141.109 3.59518C141.238 3.72358 141.366 3.85198 141.366 3.98038C141.366 4.23717 141.238 4.36557 141.109 4.36557C140.981 4.36557 140.853 4.36557 140.724 4.36557C139.312 4.36557 137.899 4.36557 136.615 4.36557C136.487 4.36557 136.359 4.36557 136.23 4.36557C135.973 4.36557 135.717 4.62237 135.717 5.00756C135.717 5.26436 135.845 5.52115 136.102 5.64955C136.23 5.64955 136.487 5.77795 136.615 5.77795C137.001 5.77795 137.386 5.77795 137.643 5.77795C137.899 5.77795 138.028 5.90634 138.028 6.03474C140.467 5.26436 142.65 6.29154 143.549 7.06193C143.677 7.19032 143.934 7.31872 144.062 7.57552C144.191 7.57552 144.319 7.57552 144.576 7.70392C145.218 7.57552 146.759 7.06193 146.887 6.54833C147.016 6.16314 146.502 5.64955 146.245 5.39275C144.704 4.75076 143.035 3.98038 143.035 3.98038L142.907 2.95319C142.907 2.95319 144.191 1.92601 145.218 2.05441C145.475 2.05441 146.117 2.6964 146.887 3.33839V1.54082C146.887 1.54082 147.786 1.79761 147.786 2.6964V4.23717C148.043 4.49397 148.3 4.75076 148.556 5.00756C149.07 5.39275 149.712 6.16314 150.226 6.93353C150.226 6.93353 150.739 7.57552 150.868 8.08911C150.868 8.21751 150.996 8.21751 150.996 8.34591C151.253 8.9879 150.739 9.24469 150.226 9.37309C149.84 9.50149 149.455 9.50149 149.455 9.50149L148.556 9.11629C148.685 9.11629 148.813 9.24469 148.813 9.24469L148.428 10.0151C148.556 10.0151 148.556 10.1435 148.685 10.1435C149.198 10.4003 148.428 10.9139 147.401 11.6843C147.401 11.6843 147.401 11.6843 147.272 11.8126C147.529 11.6843 147.786 11.6843 148.043 11.6843C149.584 11.4275 150.482 11.941 150.482 11.941L149.969 12.3262C152.023 12.7114 153.564 14.509 153.564 16.6918C153.564 19.1313 151.51 21.1857 149.07 21.1857C146.63 21.1857 144.576 19.1313 144.576 16.6918C144.576 15.6646 144.961 14.7658 145.475 13.9954C145.346 13.9954 145.218 13.867 145.09 13.867C144.961 13.867 144.833 13.7386 144.704 13.7386C144.448 13.867 144.319 13.9954 144.191 14.1238C143.677 14.509 143.035 15.0226 142.778 16.3066C142.65 16.8202 142.778 17.4622 142.778 17.9757C142.778 18.2325 142.907 18.7461 142.907 19.0029H140.853H140.981C141.238 19.0029 141.366 19.1313 141.366 19.3881C141.366 19.6449 141.238 19.7733 140.981 19.7733C140.853 19.7733 140.724 19.7733 140.596 19.7733C140.082 19.7733 139.569 19.7733 139.055 19.7733C138.67 19.7733 138.413 20.0301 138.413 20.4153C138.413 20.8005 138.67 21.0573 139.055 21.0573C139.183 21.0573 139.312 21.0573 139.44 21.0573C139.954 21.0573 140.467 21.0573 140.981 21.0573C141.238 21.0573 141.495 21.1857 141.495 21.4425C141.495 21.6993 141.366 21.8277 140.981 21.8277C140.853 21.8277 140.724 21.8277 140.724 21.8277C139.183 21.8277 137.643 21.8277 136.102 21.8277C135.973 21.8277 135.845 21.8277 135.845 21.8277C135.588 21.8277 135.331 22.0845 135.331 22.4697C135.331 22.8549 135.588 23.1117 135.845 23.1117C135.973 23.1117 136.102 23.1117 136.23 23.1117C142.008 23.1117 147.786 23.1117 153.692 23.1117C154.077 23.1117 154.334 23.1117 154.719 23.1117C158.186 22.2129 160.754 18.6177 160.112 15.0226Z" fill="white"/>
<path d="M134.946 13.4819C134.946 13.867 134.946 14.2522 134.946 14.7658C134.946 15.2794 135.203 15.4078 135.46 15.6646L135.588 15.5362C135.331 15.2794 135.203 15.0226 135.203 14.6374C135.203 13.9954 135.717 13.4819 136.359 13.4819C136.487 13.4819 136.744 13.4819 136.872 13.6103C136.872 13.3535 136.872 13.2251 136.872 12.9683C135.973 13.2251 135.331 13.3535 134.946 13.4819Z" fill="white"/>
<path d="M146.502 15.0226L147.529 15.2794L146.63 14.1238C146.502 14.2522 146.374 14.3806 146.374 14.509C146.374 14.6374 146.502 14.7658 146.502 15.0226Z" fill="white"/>
<path d="M146.887 18.3608C147.016 18.3608 147.016 18.3608 147.144 18.3608L148.043 16.5633L146.374 15.2793C146.245 15.4077 146.117 15.5361 145.86 15.5361C145.86 15.7929 145.732 15.9213 145.732 16.1781C145.732 17.0769 146.117 17.8473 146.63 18.3608C146.759 18.4892 146.887 18.3608 146.887 18.3608Z" fill="white"/>
<path d="M148.942 13.3535C148.813 13.3535 148.685 13.2251 148.556 13.2251C148.556 13.6103 148.428 13.8671 148.428 14.2523C148.428 14.3807 148.3 14.6375 148.3 14.6375L148.556 15.0227L148.942 13.3535Z" fill="white"/>
<path d="M148.171 16.6917L147.401 18.4892L148.813 17.3336L148.171 16.6917Z" fill="white"/>
<path d="M149.07 17.3337L147.529 18.6177C147.658 18.7461 147.658 18.8745 147.658 19.0029V19.1313C148.043 19.3881 148.556 19.5165 149.07 19.5165C149.584 19.5165 150.097 19.3881 150.482 19.1313V19.0029C150.482 18.8745 150.482 18.7461 150.611 18.6177L149.07 17.3337Z" fill="white"/>
<path d="M149.327 17.3336L150.739 18.4892L149.969 16.6917L149.327 17.3336Z" fill="white"/>
<path d="M137.643 6.41984C137.899 6.41984 138.156 6.29144 138.156 6.03465C138.156 6.03465 138.156 6.03465 138.156 5.90625C138.028 5.90625 138.028 5.90625 137.899 6.03465C137.514 6.16305 137.257 6.29144 137.001 6.41984C137.129 6.41984 137.386 6.41984 137.514 6.41984C137.514 6.41984 137.514 6.41984 137.643 6.41984Z" fill="white"/>
<path d="M130.709 16.82C130.581 16.5632 130.324 16.4348 130.067 16.4348C129.682 16.4348 129.425 16.4348 129.04 16.4348C128.655 16.4348 128.398 16.4348 128.013 16.4348C127.884 16.4348 127.884 16.4348 127.756 16.4348C127.499 16.5632 127.242 16.6916 127.242 17.0768C127.242 17.462 127.499 17.7188 127.884 17.7188C128.013 17.7188 128.141 17.7188 128.269 17.7188C128.655 17.7188 129.168 17.7188 129.553 17.7188C129.682 17.7188 129.81 17.7188 129.81 17.7188C130.195 17.7188 130.452 17.462 130.452 17.0768C130.709 17.0768 130.709 16.9484 130.709 16.82Z" fill="white"/>
<path d="M128.526 8.98779C128.141 8.98779 127.884 8.98779 127.499 8.98779C127.114 8.98779 126.857 8.98779 126.472 8.98779C126.087 8.98779 125.83 9.24459 125.83 9.62978C125.83 10.015 126.087 10.2718 126.472 10.2718C127.114 10.2718 127.756 10.2718 128.526 10.2718C128.783 10.2718 128.912 10.1434 129.04 10.015C129.168 9.88658 129.168 9.75818 129.168 9.62978C129.168 9.24459 128.912 8.98779 128.526 8.98779Z" fill="white"/>
<path d="M131.351 12.583C131.736 12.583 131.993 12.583 132.378 12.583C132.763 12.583 133.02 12.8398 133.02 13.225C133.02 13.6102 132.763 13.867 132.378 13.867C131.736 13.867 131.094 13.867 130.324 13.867C129.939 13.867 129.682 13.6102 129.682 13.225C129.682 12.8398 129.939 12.583 130.324 12.583C130.709 12.583 130.966 12.583 131.351 12.583Z" fill="white"/>
</g>
<defs>
<clipPath id="clip0_202_38">
<rect width="222" height="22.7264" fill="white"/>
</clipPath>
</defs>
</svg>
